<svg viewBox="0 0 98 95" xmlns="http://www.w3.org/2000/svg" fill-rule="evenodd" clip-rule="evenodd" stroke-linejoin="round" stroke-miterlimit="1.4142">
  <path d="M61.139 70.775c-3.82 3.82-7.943 7.223-12.3 10.219-4.356-2.996-8.478-6.399-12.298-10.219-13.983-13.982-22.586-31.907-24.784-51.268 11.417-5.402 23.981-8.257 36.985-8.257 13.075 0 25.704 2.887 37.169 8.347-2.213 19.326-10.812 37.218-24.772 51.178m35.316-45.36c.655-4.022 1.071-8.124 1.22-12.294l.001-.016a97.361 97.361 0 0 0-11.208-5.562l-.004-.002C74.855 2.684 62.112.001 48.742 0 31.005.001 14.373 4.723.031 12.977L0 12.992c.144 4.183.557 8.297 1.209 12.33l.011.109c.001-.001.003-.002.005-.004C5.314 50.515 18.947 72.394 38.278 87.22l-.006.003.067.045c3.339 2.557 6.845 4.908 10.503 7.024l.038-.026c3.647-2.112 7.141-4.456 10.47-7.006l.056-.037c-.001-.001-.003-.002-.004-.003 19.299-14.803 32.921-36.636 37.034-61.674.001.001.004.002.006.004l.013-.135z" fill-rule="nonzero"/>
  <path d="M74.749 25.796c-8.119-2.934-16.876-4.536-26.008-4.536-9.063 0-17.757 1.58-25.825 4.472A75.9958 75.9958 0 0 0 26.1 36.561c5.376-1.994 11.085-3.296 17.016-3.805v30.426c1.818 1.853 3.726 3.614 5.724 5.274 1.924-1.6 3.768-3.293 5.526-5.071V32.758c5.994.514 11.762 1.838 17.188 3.868a75.7452 75.7452 0 0 0 3.195-10.83" fill-rule="nonzero"/>
</svg>
