<?xml version="1.0" encoding="UTF-8" standalone="no"?><!DOCTYPE svg PUBLIC "-//W3C//DTD SVG 1.1//EN" "http://www.w3.org/Graphics/SVG/1.1/DTD/svg11.dtd"><svg width="100%" height="100%" viewBox="0 0 170 170" version="1.1" xmlns="http://www.w3.org/2000/svg" xmlns:xlink="http://www.w3.org/1999/xlink" xml:space="preserve" xmlns:serif="http://www.serif.com/" style="fill-rule:evenodd;clip-rule:evenodd;stroke-linejoin:round;stroke-miterlimit:1.41421;"><rect id="certificate" x="0" y="0" width="170" height="170" style="fill:none;"/><clipPath id="_clip1"><rect x="0" y="0" width="170" height="170"/></clipPath><g clip-path="url(#_clip1)"><circle id="Background" cx="85" cy="85" r="85" style="fill:#00f10c;fill-opacity:0.1;"/><g><rect x="64.829" y="58" width="40" height="52.335" style="fill:#00f10c;"/><clipPath id="_clip2"><rect x="64.829" y="52" width="53.33" height="10"/></clipPath><g clip-path="url(#_clip2)"><path d="M118.159,58.664c0,-3.678 -2.986,-6.664 -6.664,-6.664l-40.003,0c-3.677,0 -6.663,2.986 -6.663,6.664l0,6.672c0,3.678 2.986,6.664 6.663,6.664l40.003,0c3.678,0 6.664,-2.986 6.664,-6.664l0,-6.672Z" style="fill:#00f10c;"/></g><clipPath id="_clip3"><rect x="51.5" y="107" width="53.33" height="10"/></clipPath><g clip-path="url(#_clip3)"><path d="M104.83,110.336c0,3.678 -2.986,6.664 -6.664,6.664l-40.002,0c-3.678,0 -6.664,-2.986 -6.664,-6.664l0,-6.672c0,-3.678 2.986,-6.664 6.664,-6.664l40.002,0c3.678,0 6.664,2.986 6.664,6.664l0,6.672Z" style="fill:#00cd0b;"/></g><clipPath id="_clip4"><rect x="91.5" y="107" width="13.33" height="10"/></clipPath><g clip-path="url(#_clip4)"><path d="M104.83,110.335c0,3.679 -2.986,6.665 -6.665,6.665c-3.679,0 -6.665,-2.986 -6.665,-6.665l0,-6.67c0,-3.679 2.986,-6.665 6.665,-6.665c3.679,0 6.665,2.986 6.665,6.665l0,6.67Z" style="fill:#00f10c;"/></g><clipPath id="_clip5"><rect x="104.829" y="52" width="13.33" height="10"/></clipPath><g clip-path="url(#_clip5)"><path d="M118.159,58.665c0,-3.679 -2.987,-6.665 -6.665,-6.665c-3.679,0 -6.665,2.986 -6.665,6.665l0,6.67c0,3.679 2.986,6.665 6.665,6.665c3.678,0 6.665,-2.986 6.665,-6.665l0,-6.67Z" style="fill:#00cd0b;"/></g><path d="M84.829,71.194l2.806,8.637l9.082,0l-7.347,5.338l2.806,8.637l-7.347,-5.338l-7.348,5.338l2.807,-8.637l-7.348,-5.338l9.082,0l2.807,-8.637Z" style="fill:#fff;"/></g></g></svg>