<?xml version="1.0" encoding="UTF-8" standalone="no"?><!DOCTYPE svg PUBLIC "-//W3C//DTD SVG 1.1//EN" "http://www.w3.org/Graphics/SVG/1.1/DTD/svg11.dtd"><svg width="100%" height="100%" viewBox="0 0 170 170" version="1.1" xmlns="http://www.w3.org/2000/svg" xmlns:xlink="http://www.w3.org/1999/xlink" xml:space="preserve" xmlns:serif="http://www.serif.com/" style="fill-rule:evenodd;clip-rule:evenodd;stroke-linejoin:round;stroke-miterlimit:1.41421;"><rect id="lock" x="0" y="0" width="170" height="170" style="fill:none;"/><clipPath id="_clip1"><rect x="0" y="0" width="170" height="170"/></clipPath><g clip-path="url(#_clip1)"><circle id="Background" cx="85" cy="85" r="85" style="fill:#5e75fe;fill-opacity:0.1;"/><g id="lock1" serif:id="lock"><path d="M85.129,46l0.129,0.002l0.129,0.002l0.129,0.003l0.128,0.003l0.129,0.005l0.128,0.005l0.128,0.006l0.127,0.007l0.128,0.008l0.127,0.008l0.127,0.009l0.127,0.01l0.126,0.011l0.127,0.012l0.126,0.012l0.126,0.014l0.125,0.014l0.126,0.014l0.125,0.016l0.125,0.016l0.124,0.017l0.125,0.018l0.124,0.019l0.124,0.019l0.124,0.02l0.123,0.021l0.123,0.022l0.123,0.022l0.123,0.023l0.122,0.024l0.123,0.025l0.121,0.025l0.122,0.026l0.121,0.027l0.121,0.028l0.121,0.028l0.121,0.029l0.12,0.03l0.12,0.03l0.119,0.031l0.12,0.032l0.119,0.033l0.119,0.033l0.118,0.034l0.118,0.035l0.118,0.036l0.118,0.036l0.117,0.037l0.117,0.037l0.116,0.039l0.117,0.039l0.116,0.039l0.115,0.041l0.116,0.041l0.115,0.041l0.114,0.043l0.115,0.043l0.114,0.044l0.113,0.044l0.227,0.091l0.225,0.094l0.223,0.096l0.223,0.099l0.22,0.101l0.22,0.104l0.217,0.107l0.217,0.109l0.215,0.112l0.213,0.114l0.212,0.117l0.21,0.119l0.208,0.122l0.207,0.124l0.206,0.127l0.204,0.129l0.202,0.131l0.2,0.134l0.199,0.136l0.197,0.138l0.195,0.141l0.193,0.142l0.192,0.146l0.19,0.147l0.188,0.15l0.186,0.151l0.184,0.154l0.183,0.157l0.18,0.158l0.179,0.16l0.176,0.163l0.175,0.164l0.173,0.167l0.17,0.169l0.169,0.17l0.167,0.173l0.164,0.175l0.163,0.176l0.16,0.179l0.158,0.18l0.157,0.183l0.154,0.184l0.151,0.186l0.15,0.188l0.147,0.19l0.146,0.192l0.142,0.193l0.141,0.195l0.138,0.197l0.136,0.199l0.134,0.2l0.131,0.202l0.129,0.204l0.127,0.206l0.124,0.207l0.122,0.208l0.119,0.21l0.117,0.212l0.114,0.213l0.112,0.215l0.109,0.217l0.107,0.217l0.104,0.22l0.101,0.22l0.099,0.223l0.096,0.223l0.094,0.225l0.091,0.227l0.044,0.113l0.044,0.114l0.043,0.115l0.043,0.114l0.041,0.115l0.041,0.116l0.041,0.115l0.039,0.116l0.039,0.117l0.039,0.116l0.037,0.117l0.037,0.117l0.036,0.118l0.036,0.118l0.035,0.118l0.034,0.118l0.033,0.119l0.033,0.119l0.032,0.12l0.031,0.119l0.03,0.12l0.03,0.12l0.029,0.121l0.028,0.121l0.028,0.121l0.027,0.121l0.026,0.122l0.025,0.121l0.025,0.123l0.024,0.122l0.023,0.123l0.022,0.123l0.022,0.123l0.021,0.123l0.02,0.124l0.019,0.124l0.019,0.124l0.018,0.125l0.017,0.124l0.016,0.125l0.016,0.125l0.014,0.126l0.014,0.125l0.014,0.126l0.012,0.126l0.012,0.127l0.011,0.126l0.01,0.127l0.009,0.127l0.008,0.127l0.008,0.128l0.007,0.127l0.006,0.128l0.005,0.128l0.005,0.129l0.003,0.128l0.003,0.129l0.002,0.129l0.002,0.129l0,0.129l0,35l-40,0l0,-35l0,-0.129l0.002,-0.129l0.002,-0.129l0.003,-0.129l0.003,-0.128l0.005,-0.129l0.005,-0.128l0.006,-0.128l0.007,-0.127l0.008,-0.128l0.008,-0.127l0.009,-0.127l0.01,-0.127l0.011,-0.126l0.012,-0.127l0.012,-0.126l0.014,-0.126l0.014,-0.125l0.014,-0.126l0.016,-0.125l0.016,-0.125l0.017,-0.124l0.018,-0.125l0.019,-0.124l0.019,-0.124l0.02,-0.124l0.021,-0.123l0.022,-0.123l0.022,-0.123l0.023,-0.123l0.024,-0.122l0.025,-0.123l0.025,-0.121l0.026,-0.122l0.027,-0.121l0.028,-0.121l0.028,-0.121l0.029,-0.121l0.03,-0.12l0.03,-0.12l0.031,-0.119l0.032,-0.12l0.033,-0.119l0.033,-0.119l0.034,-0.118l0.035,-0.118l0.036,-0.118l0.036,-0.118l0.037,-0.117l0.037,-0.117l0.039,-0.116l0.039,-0.117l0.039,-0.116l0.041,-0.115l0.041,-0.116l0.041,-0.115l0.043,-0.114l0.043,-0.115l0.044,-0.114l0.044,-0.113l0.091,-0.227l0.094,-0.225l0.096,-0.223l0.099,-0.223l0.101,-0.22l0.104,-0.22l0.107,-0.217l0.109,-0.217l0.112,-0.215l0.114,-0.213l0.117,-0.212l0.119,-0.21l0.122,-0.208l0.124,-0.207l0.127,-0.206l0.129,-0.204l0.131,-0.202l0.134,-0.2l0.136,-0.199l0.138,-0.197l0.141,-0.195l0.142,-0.193l0.146,-0.192l0.147,-0.19l0.15,-0.188l0.151,-0.186l0.154,-0.184l0.157,-0.183l0.158,-0.18l0.16,-0.179l0.163,-0.176l0.164,-0.175l0.167,-0.173l0.169,-0.17l0.17,-0.169l0.173,-0.167l0.175,-0.164l0.176,-0.163l0.179,-0.16l0.18,-0.158l0.183,-0.157l0.184,-0.154l0.186,-0.151l0.188,-0.15l0.19,-0.147l0.192,-0.146l0.193,-0.142l0.195,-0.141l0.197,-0.138l0.199,-0.136l0.2,-0.134l0.202,-0.131l0.204,-0.129l0.206,-0.127l0.207,-0.124l0.208,-0.122l0.21,-0.119l0.212,-0.117l0.213,-0.114l0.215,-0.112l0.217,-0.109l0.217,-0.107l0.22,-0.104l0.22,-0.101l0.223,-0.099l0.223,-0.096l0.225,-0.094l0.227,-0.091l0.113,-0.044l0.114,-0.044l0.115,-0.043l0.114,-0.043l0.115,-0.041l0.116,-0.041l0.115,-0.041l0.116,-0.039l0.117,-0.039l0.116,-0.039l0.117,-0.037l0.117,-0.037l0.118,-0.036l0.118,-0.036l0.118,-0.035l0.118,-0.034l0.119,-0.033l0.119,-0.033l0.12,-0.032l0.119,-0.031l0.12,-0.03l0.12,-0.03l0.121,-0.029l0.121,-0.028l0.121,-0.028l0.121,-0.027l0.122,-0.026l0.121,-0.025l0.123,-0.025l0.122,-0.024l0.123,-0.023l0.123,-0.022l0.123,-0.022l0.123,-0.021l0.124,-0.02l0.124,-0.019l0.124,-0.019l0.125,-0.018l0.124,-0.017l0.125,-0.016l0.125,-0.016l0.126,-0.014l0.125,-0.014l0.126,-0.014l0.126,-0.012l0.127,-0.012l0.126,-0.011l0.127,-0.01l0.127,-0.009l0.127,-0.008l0.128,-0.008l0.127,-0.007l0.128,-0.006l0.128,-0.005l0.129,-0.005l0.128,-0.003l0.129,-0.003l0.129,-0.002l0.129,-0.002l0.129,0l0.129,0Zm-0.195,10l-0.065,0.001l-0.065,0.001l-0.067,0.001l-0.064,0.002l-0.065,0.003l-0.065,0.002l-0.064,0.003l-0.065,0.004l-0.065,0.004l-0.064,0.004l-0.063,0.005l-0.064,0.005l-0.063,0.005l-0.064,0.006l-0.063,0.006l-0.062,0.007l-0.064,0.007l-0.063,0.007l-0.062,0.008l-0.062,0.008l-0.063,0.008l-0.062,0.009l-0.062,0.01l-0.062,0.009l-0.062,0.01l-0.061,0.011l-0.061,0.01l-0.061,0.012l-0.061,0.011l-0.061,0.012l-0.06,0.012l-0.061,0.013l-0.061,0.013l-0.06,0.013l-0.06,0.014l-0.06,0.014l-0.06,0.014l-0.059,0.015l-0.059,0.015l-0.06,0.016l-0.06,0.016l-0.058,0.016l-0.059,0.016l-0.059,0.017l-0.059,0.017l-0.057,0.018l-0.059,0.018l-0.059,0.018l-0.058,0.019l-0.058,0.019l-0.057,0.019l-0.057,0.02l-0.058,0.02l-0.057,0.02l-0.056,0.021l-0.058,0.021l-0.057,0.021l-0.056,0.022l-0.042,0.017l-0.127,0.051l-0.112,0.046l-0.111,0.048l-0.11,0.049l-0.11,0.05l-0.11,0.052l-0.108,0.053l-0.108,0.055l-0.107,0.056l-0.106,0.057l-0.106,0.058l-0.105,0.06l-0.105,0.06l-0.103,0.062l-0.103,0.064l-0.102,0.065l-0.101,0.065l-0.1,0.067l-0.1,0.068l-0.099,0.07l-0.098,0.07l-0.097,0.072l-0.096,0.073l-0.096,0.074l-0.094,0.075l-0.094,0.076l-0.093,0.078l-0.092,0.079l-0.09,0.079l-0.09,0.081l-0.089,0.082l-0.088,0.083l-0.087,0.084l-0.086,0.085l-0.085,0.086l-0.084,0.087l-0.083,0.088l-0.082,0.089l-0.081,0.09l-0.079,0.09l-0.079,0.092l-0.077,0.093l-0.077,0.094l-0.075,0.094l-0.074,0.096l-0.073,0.096l-0.071,0.097l-0.071,0.098l-0.07,0.099l-0.068,0.1l-0.067,0.1l-0.066,0.101l-0.064,0.102l-0.064,0.103l-0.062,0.104l-0.061,0.104l-0.059,0.105l-0.058,0.106l-0.057,0.106l-0.056,0.107l-0.055,0.108l-0.053,0.109l-0.051,0.108l-0.051,0.111l-0.049,0.11l-0.048,0.111l-0.047,0.112l-0.05,0.126l-0.016,0.042l-0.023,0.057l-0.021,0.058l-0.021,0.056l-0.021,0.057l-0.02,0.057l-0.02,0.058l-0.02,0.058l-0.019,0.056l-0.019,0.058l-0.019,0.059l-0.018,0.058l-0.018,0.058l-0.018,0.059l-0.017,0.059l-0.017,0.057l-0.016,0.059l-0.017,0.06l-0.015,0.058l-0.016,0.061l-0.015,0.06l-0.015,0.058l-0.014,0.059l-0.014,0.062l-0.014,0.06l-0.013,0.059l-0.013,0.059l-0.013,0.062l-0.012,0.061l-0.012,0.062l-0.011,0.059l-0.011,0.061l-0.011,0.063l-0.011,0.06l-0.01,0.062l-0.009,0.063l-0.01,0.061l-0.008,0.061l-0.009,0.062l-0.008,0.064l-0.008,0.063l-0.007,0.062l-0.007,0.064l-0.007,0.061l-0.006,0.064l-0.006,0.063l-0.005,0.065l-0.006,0.063l-0.004,0.064l-0.004,0.064l-0.004,0.064l-0.004,0.065l-0.003,0.063l-0.002,0.066l-0.003,0.065l-0.002,0.065l-0.001,0.065l-0.001,0.065l-0.001,0.066l0,0.083l0,24.983l20,0l0,-24.985l0,-0.081l-0.001,-0.066l-0.001,-0.065l-0.001,-0.065l-0.002,-0.066l-0.002,-0.064l-0.003,-0.064l-0.003,-0.065l-0.004,-0.065l-0.004,-0.064l-0.004,-0.064l-0.005,-0.064l-0.005,-0.063l-0.005,-0.063l-0.006,-0.065l-0.006,-0.064l-0.007,-0.063l-0.007,-0.062l-0.007,-0.062l-0.008,-0.063l-0.008,-0.062l-0.009,-0.064l-0.008,-0.061l-0.01,-0.061l-0.009,-0.063l-0.01,-0.062l-0.011,-0.061l-0.011,-0.062l-0.011,-0.061l-0.011,-0.06l-0.012,-0.061l-0.012,-0.061l-0.013,-0.06l-0.013,-0.059l-0.013,-0.063l-0.014,-0.06l-0.014,-0.058l-0.014,-0.06l-0.015,-0.061l-0.015,-0.06l-0.015,-0.057l-0.016,-0.06l-0.017,-0.06l-0.016,-0.057l-0.017,-0.061l-0.018,-0.058l-0.017,-0.058l-0.018,-0.058l-0.018,-0.058l-0.019,-0.059l-0.019,-0.056l-0.019,-0.058l-0.02,-0.058l-0.02,-0.058l-0.02,-0.057l-0.021,-0.057l-0.021,-0.058l-0.021,-0.056l-0.022,-0.056l-0.016,-0.042l-0.051,-0.127l-0.047,-0.112l-0.048,-0.111l-0.049,-0.111l-0.05,-0.109l-0.052,-0.109l-0.054,-0.109l-0.054,-0.108l-0.056,-0.107l-0.057,-0.106l-0.058,-0.106l-0.06,-0.106l-0.06,-0.103l-0.062,-0.104l-0.064,-0.102l-0.064,-0.102l-0.066,-0.102l-0.067,-0.1l-0.068,-0.1l-0.07,-0.099l-0.07,-0.098l-0.072,-0.097l-0.073,-0.096l-0.074,-0.096l-0.075,-0.094l-0.077,-0.094l-0.077,-0.093l-0.079,-0.091l-0.079,-0.091l-0.081,-0.09l-0.082,-0.089l-0.083,-0.088l-0.084,-0.087l-0.085,-0.086l-0.086,-0.085l-0.087,-0.084l-0.088,-0.083l-0.089,-0.082l-0.089,-0.08l-0.092,-0.08l-0.092,-0.079l-0.092,-0.077l-0.094,-0.077l-0.094,-0.075l-0.095,-0.074l-0.097,-0.073l-0.097,-0.072l-0.098,-0.07l-0.099,-0.069l-0.1,-0.069l-0.1,-0.067l-0.101,-0.066l-0.102,-0.064l-0.103,-0.063l-0.103,-0.063l-0.105,-0.061l-0.105,-0.059l-0.106,-0.058l-0.106,-0.057l-0.107,-0.056l-0.108,-0.055l-0.109,-0.053l-0.109,-0.051l-0.11,-0.051l-0.11,-0.049l-0.111,-0.048l-0.112,-0.046l-0.127,-0.052l-0.042,-0.016l-0.056,-0.022l-0.057,-0.021l-0.057,-0.021l-0.057,-0.021l-0.057,-0.02l-0.058,-0.02l-0.057,-0.02l-0.057,-0.019l-0.059,-0.019l-0.058,-0.019l-0.058,-0.018l-0.058,-0.018l-0.059,-0.018l-0.058,-0.017l-0.059,-0.017l-0.058,-0.016l-0.059,-0.016l-0.06,-0.016l-0.06,-0.016l-0.058,-0.015l-0.06,-0.015l-0.06,-0.014l-0.06,-0.014l-0.06,-0.014l-0.06,-0.013l-0.061,-0.013l-0.061,-0.013l-0.059,-0.012l-0.062,-0.012l-0.061,-0.011l-0.061,-0.012l-0.062,-0.01l-0.06,-0.011l-0.062,-0.01l-0.062,-0.009l-0.062,-0.01l-0.062,-0.009l-0.063,-0.008l-0.062,-0.008l-0.062,-0.008l-0.063,-0.007l-0.064,-0.007l-0.062,-0.007l-0.063,-0.006l-0.064,-0.006l-0.063,-0.005l-0.064,-0.005l-0.063,-0.005l-0.065,-0.004l-0.064,-0.004l-0.065,-0.004l-0.064,-0.003l-0.065,-0.002l-0.065,-0.003l-0.064,-0.002l-0.067,-0.001l-0.065,-0.001l-0.065,-0.001l-0.066,0l-0.066,0Z" style="fill:#abb4ff;"/><path d="M115,81c0,-2.76 -2.24,-5 -5,-5l-50,0c-2.76,0 -5,2.24 -5,5l0,30c0,2.76 2.24,5 5,5l50,0c2.76,0 5,-2.24 5,-5l0,-30Z" style="fill:#5e75fe;"/><path d="M85,83l2.806,8.637l9.082,0l-7.347,5.338l2.806,8.638l-7.347,-5.338l-7.347,5.338l2.806,-8.638l-7.347,-5.338l9.082,0l2.806,-8.637Z" style="fill:#fff;"/></g></g></svg>