<?xml version="1.0" encoding="UTF-8" standalone="no"?><!DOCTYPE svg PUBLIC "-//W3C//DTD SVG 1.1//EN" "http://www.w3.org/Graphics/SVG/1.1/DTD/svg11.dtd"><svg viewBox="0 0 170 170" version="1.1" xmlns="http://www.w3.org/2000/svg" xmlns:xlink="http://www.w3.org/1999/xlink" xml:space="preserve" xmlns:serif="http://www.serif.com/" style="fill-rule:evenodd;clip-rule:evenodd;stroke-linejoin:round;stroke-miterlimit:2;"><rect id="briefcase" x="0.87" y="0" width="170" height="170" style="fill:#fff;"/><clipPath id="_clip1"><rect x="0.87" y="0" width="170" height="170"/></clipPath><g clip-path="url(#_clip1)"><circle id="Background" cx="85.662" cy="85.208" r="84.792" style="fill:#FFF5F5;"/><g id="briefcase1" serif:id="briefcase"><path id="Handle" d="M100.795,44.028l0.087,0.002l0.087,0.003l0.087,0.003l0.087,0.005l0.086,0.006l0.086,0.007l0.086,0.009l0.085,0.009l0.085,0.01l0.085,0.011l0.085,0.013l0.084,0.013l0.083,0.015l0.084,0.015l0.083,0.017l0.082,0.017l0.083,0.019l0.082,0.019l0.081,0.02l0.081,0.022l0.081,0.022l0.08,0.024l0.08,0.024l0.08,0.025l0.079,0.027l0.078,0.027l0.079,0.028l0.077,0.029l0.078,0.03l0.077,0.031l0.076,0.032l0.076,0.032l0.075,0.034l0.075,0.034l0.075,0.036l0.074,0.036l0.073,0.037l0.073,0.038l0.072,0.039l0.072,0.039l0.072,0.041l0.071,0.041l0.07,0.042l0.07,0.043l0.069,0.044l0.068,0.044l0.068,0.046l0.068,0.046l0.067,0.047l0.066,0.048l0.066,0.048l0.065,0.05l0.064,0.05l0.064,0.05l0.063,0.052l0.063,0.052l0.062,0.053l0.061,0.054l0.06,0.054l0.06,0.056l0.06,0.055l0.058,0.057l0.058,0.057l0.058,0.058l0.056,0.059l0.056,0.059l0.055,0.06l0.055,0.061l0.053,0.061l0.053,0.062l0.053,0.063l0.051,0.063l0.051,0.064l0.05,0.064l0.049,0.065l0.049,0.066l0.048,0.066l0.047,0.067l0.046,0.067l0.045,0.068l0.045,0.069l0.043,0.069l0.043,0.07l0.043,0.07l0.041,0.071l0.04,0.071l0.04,0.072l0.039,0.073l0.038,0.073l0.037,0.073l0.036,0.074l0.035,0.074l0.035,0.075l0.033,0.076l0.033,0.076l0.032,0.076l0.031,0.077l0.03,0.077l0.029,0.078l0.028,0.078l0.027,0.079l0.026,0.079l0.026,0.079l0.024,0.08l0.023,0.081l0.023,0.08l0.021,0.081l0.021,0.082l0.019,0.082l0.019,0.082l0.017,0.083l0.016,0.083l0.016,0.083l0.014,0.084l0.014,0.084l0.012,0.085l0.011,0.084l0.011,0.085l0.009,0.086l0.008,0.085l0.007,0.086l0.006,0.087l0.005,0.086l0.004,0.087l0.003,0.087l0.001,0.088l0.001,0.088l0,41.255l-0.001,0.087l-0.001,0.088l-0.003,0.087l-0.004,0.087l-0.005,0.087l-0.006,0.086l-0.007,0.086l-0.008,0.086l-0.009,0.085l-0.011,0.085l-0.011,0.085l-0.012,0.084l-0.014,0.084l-0.014,0.084l-0.016,0.083l-0.016,0.083l-0.017,0.083l-0.019,0.082l-0.019,0.082l-0.021,0.082l-0.021,0.081l-0.023,0.081l-0.023,0.08l-0.024,0.08l-0.026,0.08l-0.026,0.079l-0.027,0.078l-0.028,0.078l-0.029,0.078l-0.03,0.077l-0.031,0.077l-0.032,0.077l-0.033,0.076l-0.033,0.075l-0.035,0.075l-0.035,0.074l-0.036,0.074l-0.037,0.074l-0.038,0.073l-0.039,0.072l-0.04,0.072l-0.04,0.071l-0.041,0.071l-0.043,0.071l-0.043,0.069l-0.043,0.069l-0.045,0.069l-0.045,0.068l-0.046,0.067l-0.047,0.067l-0.048,0.067l-0.049,0.065l-0.049,0.065l-0.05,0.065l-0.051,0.064l-0.051,0.063l-0.053,0.062l-0.053,0.062l-0.053,0.062l-0.055,0.06l-0.055,0.06l-0.056,0.06l-0.056,0.058l-0.058,0.058l-0.058,0.057l-0.058,0.057l-0.06,0.056l-0.06,0.055l-0.06,0.054l-0.061,0.054l-0.062,0.053l-0.063,0.052l-0.063,0.052l-0.064,0.051l-0.064,0.05l-0.065,0.049l-0.066,0.049l-0.066,0.047l-0.067,0.047l-0.068,0.047l-0.068,0.045l-0.068,0.044l-0.069,0.044l-0.07,0.043l-0.07,0.042l-0.071,0.042l-0.072,0.04l-0.072,0.04l-0.072,0.039l-0.073,0.038l-0.073,0.037l-0.074,0.036l-0.075,0.035l-0.075,0.035l-0.075,0.033l-0.076,0.033l-0.076,0.032l-0.077,0.031l-0.078,0.029l-0.077,0.029l-0.079,0.029l-0.078,0.027l-0.079,0.026l-0.08,0.025l-0.08,0.025l-0.08,0.023l-0.081,0.022l-0.081,0.022l-0.081,0.02l-0.082,0.02l-0.083,0.018l-0.082,0.018l-0.083,0.016l-0.084,0.016l-0.083,0.014l-0.084,0.014l-0.085,0.012l-0.085,0.011l-0.085,0.01l-0.085,0.01l-0.086,0.008l-0.086,0.007l-0.086,0.006l-0.087,0.005l-0.087,0.004l-0.087,0.003l-0.087,0.001l-0.088,0.001l-30.089,0l-0.088,-0.001l-0.087,-0.001l-0.088,-0.003l-0.086,-0.004l-0.087,-0.005l-0.086,-0.006l-0.086,-0.007l-0.086,-0.008l-0.085,-0.01l-0.086,-0.01l-0.084,-0.011l-0.085,-0.012l-0.084,-0.014l-0.084,-0.014l-0.083,-0.016l-0.083,-0.016l-0.083,-0.018l-0.082,-0.018l-0.082,-0.02l-0.081,-0.02l-0.081,-0.022l-0.081,-0.022l-0.081,-0.023l-0.079,-0.025l-0.08,-0.025l-0.079,-0.026l-0.079,-0.027l-0.078,-0.029l-0.078,-0.029l-0.077,-0.029l-0.077,-0.031l-0.076,-0.032l-0.076,-0.033l-0.076,-0.033l-0.074,-0.035l-0.075,-0.035l-0.074,-0.036l-0.073,-0.037l-0.073,-0.038l-0.073,-0.039l-0.072,-0.04l-0.071,-0.04l-0.071,-0.042l-0.07,-0.042l-0.07,-0.043l-0.069,-0.044l-0.068,-0.044l-0.069,-0.045l-0.067,-0.047l-0.067,-0.047l-0.066,-0.047l-0.066,-0.049l-0.065,-0.049l-0.064,-0.05l-0.064,-0.051l-0.063,-0.052l-0.063,-0.052l-0.062,-0.053l-0.061,-0.054l-0.061,-0.054l-0.06,-0.055l-0.059,-0.056l-0.059,-0.057l-0.058,-0.057l-0.057,-0.058l-0.056,-0.058l-0.056,-0.06l-0.055,-0.06l-0.055,-0.06l-0.054,-0.062l-0.053,-0.062l-0.052,-0.062l-0.051,-0.063l-0.051,-0.064l-0.05,-0.065l-0.05,-0.065l-0.048,-0.065l-0.048,-0.067l-0.047,-0.067l-0.046,-0.067l-0.045,-0.068l-0.045,-0.069l-0.044,-0.069l-0.043,-0.069l-0.042,-0.071l-0.041,-0.071l-0.041,-0.071l-0.039,-0.072l-0.039,-0.072l-0.038,-0.073l-0.037,-0.074l-0.036,-0.074l-0.036,-0.074l-0.034,-0.075l-0.034,-0.075l-0.032,-0.076l-0.032,-0.077l-0.031,-0.077l-0.03,-0.077l-0.029,-0.078l-0.028,-0.078l-0.027,-0.078l-0.026,-0.079l-0.026,-0.08l-0.024,-0.08l-0.023,-0.08l-0.023,-0.081l-0.021,-0.081l-0.021,-0.082l-0.019,-0.082l-0.019,-0.082l-0.017,-0.083l-0.017,-0.083l-0.015,-0.083l-0.015,-0.084l-0.013,-0.084l-0.012,-0.084l-0.012,-0.085l-0.01,-0.085l-0.009,-0.085l-0.008,-0.086l-0.007,-0.086l-0.006,-0.086l-0.005,-0.087l-0.004,-0.087l-0.003,-0.087l-0.002,-0.088l0,-0.087l0,-41.255l0,-0.088l0.002,-0.088l0.003,-0.087l0.004,-0.087l0.005,-0.086l0.006,-0.087l0.007,-0.086l0.008,-0.085l0.009,-0.086l0.01,-0.085l0.012,-0.084l0.012,-0.085l0.013,-0.084l0.015,-0.084l0.015,-0.083l0.017,-0.083l0.017,-0.083l0.019,-0.082l0.019,-0.082l0.021,-0.082l0.021,-0.081l0.023,-0.08l0.023,-0.081l0.024,-0.08l0.026,-0.079l0.026,-0.079l0.027,-0.079l0.028,-0.078l0.029,-0.078l0.03,-0.077l0.031,-0.077l0.032,-0.076l0.032,-0.076l0.034,-0.076l0.034,-0.075l0.036,-0.074l0.036,-0.074l0.037,-0.073l0.038,-0.073l0.039,-0.073l0.039,-0.072l0.041,-0.071l0.041,-0.071l0.042,-0.07l0.043,-0.07l0.044,-0.069l0.045,-0.069l0.045,-0.068l0.046,-0.067l0.047,-0.067l0.048,-0.066l0.048,-0.066l0.05,-0.065l0.05,-0.064l0.051,-0.064l0.051,-0.063l0.052,-0.063l0.053,-0.062l0.054,-0.061l0.055,-0.061l0.055,-0.06l0.056,-0.059l0.056,-0.059l0.057,-0.058l0.058,-0.057l0.059,-0.057l0.059,-0.055l0.06,-0.056l0.061,-0.054l0.061,-0.054l0.062,-0.053l0.063,-0.052l0.063,-0.052l0.064,-0.05l0.064,-0.05l0.065,-0.05l0.066,-0.048l0.066,-0.048l0.067,-0.047l0.067,-0.046l0.069,-0.046l0.068,-0.044l0.069,-0.044l0.07,-0.043l0.07,-0.042l0.071,-0.041l0.071,-0.041l0.072,-0.039l0.073,-0.039l0.073,-0.038l0.073,-0.037l0.074,-0.036l0.075,-0.036l0.074,-0.034l0.076,-0.034l0.076,-0.032l0.076,-0.032l0.077,-0.031l0.077,-0.03l0.078,-0.029l0.078,-0.028l0.079,-0.027l0.079,-0.027l0.08,-0.025l0.079,-0.024l0.081,-0.024l0.081,-0.022l0.081,-0.022l0.081,-0.02l0.082,-0.019l0.082,-0.019l0.083,-0.017l0.083,-0.017l0.083,-0.015l0.084,-0.015l0.084,-0.013l0.085,-0.013l0.084,-0.011l0.086,-0.01l0.085,-0.009l0.086,-0.009l0.086,-0.007l0.086,-0.006l0.087,-0.005l0.086,-0.003l0.088,-0.003l0.087,-0.002l0.088,0l30.089,0l0.088,0Zm-26.967,10l0,34.835l23.669,0l0,-34.835l-23.669,0Z" style="fill:#9B2C2C;"/><path id="Base" d="M130.965,68.365c0,-3.748 -3.043,-6.79 -6.79,-6.79l-77.025,0c-3.748,0 -6.79,3.042 -6.79,6.79l0,45.103c0,3.748 3.042,6.79 6.79,6.79l77.025,0c3.747,0 6.79,-3.042 6.79,-6.79l0,-45.103Z" style="fill:#F56565;"/><path d="M85.662,79.55l2.807,8.637l9.082,0l-7.348,5.338l2.807,8.637l-7.348,-5.338l-7.347,5.338l2.807,-8.637l-7.348,-5.338l9.082,0l2.806,-8.637Z" style="fill:#fff;"/></g></g></svg>