<svg viewBox="0 0 170 170" xmlns="http://www.w3.org/2000/svg" fill-rule="evenodd" clip-rule="evenodd" stroke-linejoin="round" stroke-miterlimit="1.41421">
  <path fill="none" d="M0 0h170v170H0z"/>
  <clipPath id="a">
    <path d="M0 0h170v170H0z"/>
  </clipPath>
  <g clip-path="url(#a)">
    <circle cx="85" cy="85" r="85" fill="#F0FFF4"/>
    <path fill="#68D391" d="M64.829 58h40v52.335h-40z"/>
    <clipPath id="b">
      <path d="M64.829 52h53.33v10h-53.33z"/>
    </clipPath>
    <g clip-path="url(#b)">
      <path d="M118.159 58.664c0-3.678-2.986-6.664-6.664-6.664H71.492c-3.677 0-6.663 2.986-6.663 6.664v6.672c0 3.678 2.986 6.664 6.663 6.664h40.003c3.678 0 6.664-2.986 6.664-6.664v-6.672z" fill="#68D391"/>
    </g>
    <clipPath id="c">
      <path d="M51.5 107h53.33v10H51.5z"/>
    </clipPath>
    <g clip-path="url(#c)">
      <path d="M104.83 110.336c0 3.678-2.986 6.664-6.664 6.664H58.164c-3.678 0-6.664-2.986-6.664-6.664v-6.672c0-3.678 2.986-6.664 6.664-6.664h40.002c3.678 0 6.664 2.986 6.664 6.664v6.672z" fill="#38A169"/>
    </g>
    <clipPath id="d">
      <path d="M91.5 107h13.33v10H91.5z"/>
    </clipPath>
    <g clip-path="url(#d)">
      <path d="M104.83 110.335c0 3.679-2.986 6.665-6.665 6.665s-6.665-2.986-6.665-6.665v-6.67c0-3.679 2.986-6.665 6.665-6.665s6.665 2.986 6.665 6.665v6.67z" fill="#68D391"/>
    </g>
    <clipPath id="e">
      <path d="M104.829 52h13.33v10h-13.33z"/>
    </clipPath>
    <g clip-path="url(#e)">
      <path d="M118.159 58.665c0-3.679-2.987-6.665-6.665-6.665-3.679 0-6.665 2.986-6.665 6.665v6.67c0 3.679 2.986 6.665 6.665 6.665 3.678 0 6.665-2.986 6.665-6.665v-6.67z" fill="#38A169"/>
    </g>
    <path d="M84.829 71.194l2.806 8.637h9.082l-7.347 5.338 2.806 8.637-7.347-5.338-7.348 5.338 2.807-8.637-7.348-5.338h9.082l2.807-8.637z" fill="#fff"/>
  </g>
</svg>
