<svg width="18" height="18" viewBox="0 0 18 18" fill="none" xmlns="http://www.w3.org/2000/svg">
<path d="M15.5 3.5H2.5C1.67157 3.5 1 4.17157 1 5V13.5C1 14.3284 1.67157 15 2.5 15H15.5C16.3284 15 17 14.3284 17 13.5V5C17 4.17157 16.3284 3.5 15.5 3.5Z" fill="#38A169"/>
<path d="M8.75 5.5H3.75C3.33579 5.5 3 5.83579 3 6.25C3 6.66421 3.33579 7 3.75 7H8.75C9.16421 7 9.5 6.66421 9.5 6.25C9.5 5.83579 9.16421 5.5 8.75 5.5Z" fill="#C6F6D5"/>
<path d="M12.75 5.5H11.25C10.8358 5.5 10.5 5.83579 10.5 6.25C10.5 6.66421 10.8358 7 11.25 7H12.75C13.1642 7 13.5 6.66421 13.5 6.25C13.5 5.83579 13.1642 5.5 12.75 5.5Z" fill="#C6F6D5"/>
<path d="M14.25 8.5H3.75C3.33579 8.5 3 8.83579 3 9.25C3 9.66421 3.33579 10 3.75 10H14.25C14.6642 10 15 9.66421 15 9.25C15 8.83579 14.6642 8.5 14.25 8.5Z" fill="#C6F6D5"/>
<path d="M5.25 11.5H3.75C3.33579 11.5 3 11.8358 3 12.25C3 12.6642 3.33579 13 3.75 13H5.25C5.66421 13 6 12.6642 6 12.25C6 11.8358 5.66421 11.5 5.25 11.5Z" fill="#C6F6D5"/>
<path d="M10.75 11.5H7.75C7.33579 11.5 7 11.8358 7 12.25C7 12.6642 7.33579 13 7.75 13H10.75C11.1642 13 11.5 12.6642 11.5 12.25C11.5 11.8358 11.1642 11.5 10.75 11.5Z" fill="#C6F6D5"/>
</svg>
