<svg width="64" viewBox="0 0 63 74" xmlns="http://www.w3.org/2000/svg" fill-rule="evenodd" clip-rule="evenodd" stroke-linejoin="round" stroke-miterlimit="1.41">
  <path d="M10.74 9.65v-.73a7.04 7.04 0 0 1 .08-.72 4.3 4.3 0 0 1 .23-.8 5.34 5.34 0 0 1 1.55-2.13 8.2 8.2 0 0 1 1.58-1.14 14.62 14.62 0 0 1 2.3-1.12 32.06 32.06 0 0 1 4.97-1.46c1.29-.27 2.58-.48 3.88-.63A51.55 51.55 0 0 1 30.96.6h.51a59.5 59.5 0 0 1 5.66.3c1.34.16 2.68.36 4 .63a32.72 32.72 0 0 1 5 1.45 18.87 18.87 0 0 1 2.38 1.16 11.37 11.37 0 0 1 1.86 1.4l.19.2a5.33 5.33 0 0 1 1.2 2.03 4.31 4.31 0 0 1 .18 1.19V40.7l-.24-.11-.24-.1a32.5 32.5 0 0 0-1.95-.74H13.17l-.09.03-.17.06a30.6 30.6 0 0 0-2.17.86V9.65z" fill="url(#_Linear1)"/>
  <path d="M31.77 37.12a94.23 94.23 0 0 1 6.62.27 78.5 78.5 0 0 1 9.17 1.3 51.28 51.28 0 0 1 5.67 1.54 30.3 30.3 0 0 1 3.43 1.45 19.05 19.05 0 0 1 2.36 1.45l.47.37a7.25 7.25 0 0 1 2.26 3.02 5.37 5.37 0 0 1 .3 1.7v13.51l-.05.37-.01.1a1.7 1.7 0 0 1-1.05 1.16c-.16.06-.33.07-.5.1h-.04l-11.47.83a.39.39 0 0 0 .05-.04.24.24 0 0 0 .03-.06c.05-.1 0-.21-.05-.3a.76.76 0 0 0-.09-.12 3.34 3.34 0 0 0-.28-.28l-.16-.13-.23-.18-.82-.6c-.2-.15-.4-.3-.57-.47l-.15-.17a.52.52 0 0 1-.08-.13 1.65 1.65 0 0 0-.1-.55 2.62 2.62 0 0 0-.84-1.14 4.69 4.69 0 0 0-.58-.42c-.62-.4-1.3-.7-1.98-.95-.96-.36-1.95-.63-2.95-.85a36.74 36.74 0 0 0-4.47-.67 48.3 48.3 0 0 0-10.14.15 32.74 32.74 0 0 0-5.15 1.07c-.33.1-.65.22-.98.34-.46.18-.91.37-1.34.6a6.58 6.58 0 0 0-1.23.84c-.3.26-.56.58-.7.96-.05.13-.08.26-.1.39v.2a.6.6 0 0 1-.01.05c-.05.18-.17.33-.28.46-.16.2-.33.38-.5.57l-.12.16-.09.1-.07.12-.05.07c-.07.14-.13.3-.07.45a.38.38 0 0 0 .13.18L2.2 63.46l-.32-.04-.1-.02a1.45 1.45 0 0 1-.36-.15c-.37-.2-.64-.55-.78-.95-.05-.18-.06-.36-.08-.54v-.03l-.02-9.32v-2.54l.01-1.7v-.16a5.08 5.08 0 0 1 .32-1.53A7.27 7.27 0 0 1 3.1 43.5a11.03 11.03 0 0 1 1.12-.83 15.66 15.66 0 0 1 1.8-1.04 24.74 24.74 0 0 1 3.35-1.4 41.63 41.63 0 0 1 5.67-1.55 78.27 78.27 0 0 1 13.42-1.52 95.04 95.04 0 0 1 3.31-.04zm15.14 24.82l-.12.1v.02l.18-.17-.06.05zm-15.8-21.72a77.22 77.22 0 0 0-11.27.77c-1.6.22-3.2.5-4.78.86-1.28.28-2.55.62-3.8 1.02A28.19 28.19 0 0 0 7 44.62a14.4 14.4 0 0 0-1.91 1.26l-.34.3a4.5 4.5 0 0 0-.75.9 2.4 2.4 0 0 0-.33.8l-.03.33V60.41l9.31.35.1-.1v-.04l.03-.08.05-.18a5.2 5.2 0 0 1 .58-1.23 7.38 7.38 0 0 1 3.12-2.6 14 14 0 0 1 1.6-.69 21.55 21.55 0 0 1 2.7-.82c1.63-.39 3.29-.65 4.95-.82a50.7 50.7 0 0 1 11.56.13 34.29 34.29 0 0 1 5.95 1.3A19.33 19.33 0 0 1 46 56.67a9.3 9.3 0 0 1 1.74 1.17 6.06 6.06 0 0 1 1.66 2.36l.02.04.57.41a20.06 20.06 0 0 1 .47.37l.06.05 8.43-.6c0-4.1.09-8.2 0-12.3l-.03-.23a2.78 2.78 0 0 0-.66-1.3 4.28 4.28 0 0 0-.42-.45 6.52 6.52 0 0 0-.78-.65 10.94 10.94 0 0 0-1.47-.91 27.81 27.81 0 0 0-4.13-1.71c-1.24-.4-2.5-.74-3.76-1.02a59.5 59.5 0 0 0-4.13-.78 74.78 74.78 0 0 0-9.9-.86l-1.92-.03h-.64z" fill="#0079e8" fill-rule="nonzero"/>
  <path d="M31.57 49.98a91.08 91.08 0 0 1 8.29.42c1.96.2 3.91.47 5.85.83 1.42.27 2.82.58 4.21.96 1.2.33 2.4.7 3.59 1.14a29.06 29.06 0 0 1 3.77 1.74 16.9 16.9 0 0 1 2.35 1.65l.37.34a7.55 7.55 0 0 1 1.95 2.99 5.54 5.54 0 0 1-.44 4.4 7.9 7.9 0 0 1-1.48 1.92c-.4.4-.84.75-1.29 1.08-.5.36-1.02.7-1.56 1a31.41 31.41 0 0 1-4.3 1.91 40.83 40.83 0 0 1-5.46 1.52 63.02 63.02 0 0 1-7.56 1.18 84.37 84.37 0 0 1-20.89-.5 63.05 63.05 0 0 1-6.43-1.36 41.21 41.21 0 0 1-4.96-1.74c-.68-.3-1.36-.64-2.01-1.01a16.4 16.4 0 0 1-1.57-1c-.45-.33-.88-.69-1.29-1.08a7.93 7.93 0 0 1-1.48-1.92 5.99 5.99 0 0 1-.7-2.87 5.56 5.56 0 0 1 .43-2 7.56 7.56 0 0 1 2.16-2.86 11.94 11.94 0 0 1 1.32-1.01 17.24 17.24 0 0 1 2.59-1.45 28.9 28.9 0 0 1 2.21-.93c1.18-.44 2.38-.81 3.59-1.14 1.39-.38 2.8-.7 4.2-.96 1.89-.35 3.78-.61 5.68-.81a82.6 82.6 0 0 1 8.47-.44h.39zm-.2 6.78c8.46 0 15.32 2.23 15.32 4.97 0 2.74-6.86 4.97-15.32 4.97-8.45 0-15.31-2.23-15.31-4.97 0-2.74 6.86-4.97 15.31-4.97z" fill="#0079e8"/>
  <defs>
    <linearGradient id="_Linear1" x2="1" gradientUnits="userSpaceOnUse" gradientTransform="matrix(216.54 0 0 216.542 10.74 20.64)">
      <stop offset="0" stop-color="#0079e8"/>
      <stop offset="1" stop-color="#0079e8" stop-opacity="0"/>
    </linearGradient>
  </defs>
</svg>
