<svg width="64px" height="64px" viewBox="0 0 64 64" xmlns="http://www.w3.org/2000/svg" fill-rule="evenodd" clip-rule="evenodd" stroke-linejoin="round" stroke-miterlimit="1.41421">
  <g fill="#ff4439">
    <path d="M42.486 11.313c1.211-1.211 1.211-3.204 0-4.415l-4.415-4.415c-3.311-3.311-8.831-3.311-12.142 0l-4.415 4.415c-1.211 1.211-1.211 3.204 0 4.415L32 21.799l10.486-10.486zM53.239 43.034c1.254.739 2.866.509 3.863-.553l4.415-4.414c3.311-3.311 3.311-8.831 0-12.142l-3.863-3.863c-1.211-1.211-3.204-1.211-4.415 0L42.753 32.548l10.486 10.486zM21.514 53.789c-.74 1.253-.509 2.866.552 3.863l3.863 3.863c3.311 3.311 8.831 3.311 12.142 0l3.862-3.863c1.062-.997 1.292-2.61.553-3.863L32 43.303 21.514 53.789zM10.761 22.062c-1.211-1.211-3.204-1.211-4.415 0l-3.863 3.863c-3.311 3.311-3.311 8.831 0 12.142l4.415 4.414c.997 1.062 2.609 1.292 3.863.553l10.486-10.486-10.486-10.486z"/>
  </g>
</svg>
