<svg width="64px" viewBox="0 0 47 47" xmlns="http://www.w3.org/2000/svg" fill-rule="evenodd" clip-rule="evenodd" stroke-linejoin="round" stroke-miterlimit="1.4142">
  <clipPath id="a">
    <path d="M0 0h46.669v46.669H0z"/>
  </clipPath>
  <g clip-path="url(#a)">
    <path d="M32.2915 9.664c1.0345-1.0345 1.0345-2.7372 0-3.7717l-3.771-3.771c-2.8284-2.8284-7.5434-2.8284-10.3719 0l-3.771 3.771c-1.0345 1.0345-1.0345 2.7372 0 3.7717l8.957 8.957 8.9569-8.957z" fill="#ff4439" />
    <path d="M37.4767 32.7631c1.0713.6315 2.4487.4349 3.3-.4716l3.771-3.771c2.8285-2.8285 2.8285-7.5434 0-10.3719l-3.2993-3.2993c-1.0345-1.0345-2.7372-1.0345-3.7717 0l-8.957 8.9569 8.957 8.957z" fill="#ff4439" />
    <path d="M14.3776 37.9483c-.6321 1.0706-.4348 2.4487.4717 3.3l3.2993 3.2995c2.8285 2.8284 7.5435 2.8284 10.3719 0l3.2993-3.2994c.9066-.8514 1.1038-2.2295.4717-3.3l-8.957-8.957-8.9569 8.957z" fill="#ff4439" />
    <path d="M9.1924 14.8493c-1.0345-1.0345-2.7372-1.0345-3.7717 0l-3.2993 3.2993c-2.8285 2.8285-2.8285 7.5434 0 10.3719l3.771 3.771c.8513.9065 2.2288 1.103 3.3.4716l8.957-8.957-8.957-8.9568z" fill="#ff4439"/>
  </g>
</svg>
