<?xml version="1.0" encoding="UTF-8" standalone="no"?><!DOCTYPE svg PUBLIC "-//W3C//DTD SVG 1.1//EN" "http://www.w3.org/Graphics/SVG/1.1/DTD/svg11.dtd"><svg width="64px" viewBox="0 0 63 74" version="1.1" xmlns="http://www.w3.org/2000/svg" xmlns:xlink="http://www.w3.org/1999/xlink" xml:space="preserve" xmlns:serif="http://www.serif.com/" style="fill-rule:evenodd;clip-rule:evenodd;stroke-linejoin:round;stroke-miterlimit:1.41421;"><g><g><path d="M10.745,9.646c0,-0.243 0.001,-0.486 0.002,-0.729c0.002,-0.085 0.005,-0.169 0.01,-0.253c0.011,-0.155 0.031,-0.31 0.059,-0.462c0.03,-0.163 0.069,-0.323 0.117,-0.48c0.035,-0.111 0.073,-0.22 0.115,-0.328c0.254,-0.641 0.644,-1.195 1.086,-1.668c0.062,-0.067 0.126,-0.133 0.191,-0.197c0.091,-0.09 0.183,-0.177 0.278,-0.261c0.114,-0.103 0.231,-0.201 0.35,-0.297c0.171,-0.137 0.346,-0.266 0.524,-0.39c0.229,-0.16 0.462,-0.309 0.699,-0.45c0.322,-0.192 0.65,-0.369 0.982,-0.534c0.435,-0.216 0.877,-0.412 1.323,-0.592c0.483,-0.195 0.971,-0.371 1.462,-0.533c1.155,-0.381 2.329,-0.682 3.51,-0.928c1.284,-0.268 2.578,-0.47 3.876,-0.62c1.368,-0.157 2.741,-0.257 4.115,-0.304c0.506,-0.017 1.012,-0.027 1.518,-0.031c0.171,-0.001 0.341,-0.002 0.512,-0.002c0.508,0.002 1.015,0.01 1.523,0.025c1.379,0.041 2.758,0.134 4.132,0.286c1.341,0.148 2.678,0.351 4.005,0.624c1.186,0.244 2.364,0.543 3.524,0.92c0.494,0.161 0.985,0.336 1.47,0.53c0.475,0.189 0.944,0.396 1.406,0.625c0.332,0.165 0.66,0.342 0.981,0.534c0.237,0.141 0.471,0.29 0.7,0.45c0.178,0.124 0.352,0.253 0.523,0.39c0.119,0.096 0.236,0.194 0.351,0.297c0.094,0.084 0.187,0.171 0.278,0.261c0.065,0.064 0.128,0.13 0.191,0.197c0.449,0.481 0.845,1.046 1.098,1.7c0.041,0.108 0.079,0.218 0.112,0.33c0.047,0.157 0.085,0.318 0.114,0.481c0.029,0.164 0.048,0.331 0.057,0.499c0.003,0.071 0.005,0.142 0.005,0.214l0,31.745c-0.081,-0.036 -0.162,-0.072 -0.244,-0.107c-0.081,-0.036 -0.163,-0.07 -0.244,-0.105c-0.324,-0.135 -0.649,-0.266 -0.976,-0.39c-0.5,-0.189 -0.846,-0.307 -0.967,-0.348l-36.339,0l-0.091,0.031l-0.17,0.059c-0.396,0.139 -0.789,0.286 -1.181,0.442c-0.332,0.133 -0.663,0.272 -0.991,0.418l0,-0.95l0,-30.099l0.004,0Z" style="fill:url(#_Linear1);"/><path d="M31.77,37.118c0.663,0.004 1.326,0.013 1.989,0.031c1.545,0.042 3.089,0.121 4.63,0.243c1.705,0.135 3.406,0.322 5.098,0.568c1.366,0.199 2.727,0.437 4.077,0.723c1.047,0.221 2.087,0.471 3.118,0.757c0.857,0.238 1.707,0.5 2.546,0.794c0.667,0.233 1.327,0.486 1.976,0.765c0.492,0.211 0.977,0.436 1.453,0.679c0.359,0.184 0.712,0.377 1.058,0.583c0.254,0.151 0.504,0.308 0.75,0.474c0.187,0.126 0.372,0.258 0.553,0.394c0.159,0.119 0.316,0.243 0.469,0.371c0.972,0.812 1.826,1.816 2.26,3.02c0.078,0.219 0.142,0.442 0.191,0.669c0.072,0.338 0.106,0.681 0.11,1.027l0,13.515c-0.018,0.123 -0.026,0.246 -0.044,0.369c-0.006,0.033 -0.012,0.066 -0.019,0.099c-0.134,0.526 -0.533,0.976 -1.044,1.161c-0.163,0.06 -0.336,0.067 -0.507,0.091l-0.032,0.005l-11.468,0.832c0.015,-0.012 0.029,-0.025 0.042,-0.039c0.015,-0.017 0.028,-0.035 0.038,-0.056c0.049,-0.102 0.002,-0.217 -0.054,-0.306c-0.013,-0.02 -0.026,-0.039 -0.041,-0.058c-0.015,-0.02 -0.031,-0.04 -0.047,-0.06c-0.018,-0.021 -0.036,-0.041 -0.054,-0.061c-0.027,-0.029 -0.055,-0.057 -0.083,-0.084c-0.046,-0.045 -0.093,-0.088 -0.142,-0.13c-0.052,-0.046 -0.106,-0.09 -0.16,-0.134c-0.078,-0.063 -0.157,-0.123 -0.236,-0.183c-0.272,-0.204 -0.548,-0.4 -0.822,-0.601c-0.196,-0.148 -0.395,-0.296 -0.57,-0.468c-0.053,-0.053 -0.104,-0.108 -0.148,-0.168c-0.03,-0.042 -0.058,-0.086 -0.074,-0.134c-0.012,-0.035 -0.013,-0.069 -0.014,-0.105c-0.001,-0.031 -0.003,-0.061 -0.005,-0.091c-0.004,-0.041 -0.009,-0.081 -0.015,-0.121c-0.014,-0.08 -0.033,-0.16 -0.059,-0.238c-0.151,-0.455 -0.487,-0.83 -0.848,-1.133c-0.089,-0.075 -0.18,-0.146 -0.274,-0.214c-0.1,-0.072 -0.202,-0.141 -0.306,-0.207c-0.619,-0.395 -1.296,-0.696 -1.983,-0.951c-0.957,-0.357 -1.947,-0.625 -2.945,-0.843c-1.475,-0.322 -2.975,-0.534 -4.479,-0.672c-1.71,-0.156 -3.429,-0.215 -5.146,-0.188c-1.666,0.026 -3.332,0.133 -4.985,0.341c-1.326,0.167 -2.647,0.397 -3.943,0.725c-0.407,0.104 -0.812,0.217 -1.213,0.343c-0.328,0.103 -0.653,0.215 -0.974,0.337c-0.46,0.176 -0.914,0.374 -1.349,0.606c-0.361,0.193 -0.712,0.411 -1.032,0.669c-0.064,0.052 -0.128,0.106 -0.189,0.162c-0.296,0.268 -0.563,0.588 -0.704,0.966c-0.046,0.125 -0.078,0.255 -0.092,0.388c-0.006,0.064 -0.003,0.13 -0.01,0.194c-0.003,0.021 -0.007,0.041 -0.012,0.061c-0.05,0.172 -0.165,0.322 -0.276,0.459c-0.158,0.195 -0.331,0.379 -0.496,0.569c-0.042,0.05 -0.085,0.101 -0.126,0.152c-0.029,0.038 -0.058,0.075 -0.086,0.113c-0.026,0.037 -0.051,0.074 -0.075,0.112c-0.015,0.023 -0.029,0.048 -0.043,0.072c-0.073,0.133 -0.135,0.298 -0.079,0.448c0.01,0.025 0.022,0.05 0.037,0.072c0.028,0.041 0.063,0.075 0.102,0.106l-12.777,-0.482c-0.106,-0.017 -0.214,-0.026 -0.32,-0.041c-0.032,-0.005 -0.064,-0.011 -0.095,-0.018c-0.127,-0.031 -0.248,-0.082 -0.361,-0.145c-0.369,-0.207 -0.646,-0.556 -0.778,-0.956c-0.057,-0.172 -0.064,-0.353 -0.086,-0.532l-0.005,-0.033c-0.002,-3.107 -0.01,-6.214 -0.01,-9.322c0.001,-0.847 0.002,-1.694 0.004,-2.542c0.002,-0.565 0.004,-1.13 0.006,-1.694c0.002,-0.085 0.002,-0.084 0.005,-0.168c0.016,-0.319 0.059,-0.633 0.134,-0.943c0.047,-0.199 0.107,-0.394 0.178,-0.586c0.439,-1.186 1.283,-2.174 2.244,-2.976c0.153,-0.128 0.309,-0.252 0.468,-0.371c0.213,-0.16 0.43,-0.313 0.652,-0.459c0.255,-0.17 0.516,-0.331 0.781,-0.486c0.334,-0.194 0.674,-0.378 1.019,-0.552c0.482,-0.243 0.973,-0.468 1.47,-0.679c0.618,-0.262 1.246,-0.502 1.88,-0.724c0.844,-0.294 1.699,-0.557 2.56,-0.796c1.027,-0.284 2.064,-0.533 3.107,-0.753c1.328,-0.28 2.666,-0.515 4.009,-0.712c1.719,-0.252 3.448,-0.441 5.18,-0.578c1.407,-0.111 2.816,-0.186 4.227,-0.23c0.755,-0.024 1.51,-0.036 2.266,-0.042c0.349,-0.001 0.699,-0.002 1.048,0Zm15.143,24.818l-0.122,0.112l-0.006,0.007l0.181,-0.163c-0.017,0.014 -0.035,0.029 -0.053,0.044Zm-15.803,-21.719c-1.967,0.007 -3.934,0.072 -5.897,0.209c-1.795,0.126 -3.587,0.309 -5.368,0.56c-1.606,0.227 -3.204,0.509 -4.786,0.863c-1.277,0.285 -2.544,0.618 -3.79,1.016c-1.093,0.349 -2.172,0.749 -3.215,1.229c-0.356,0.165 -0.707,0.339 -1.052,0.525c-0.282,0.152 -0.56,0.313 -0.832,0.484c-0.217,0.136 -0.43,0.28 -0.637,0.431c-0.151,0.111 -0.299,0.226 -0.443,0.346c-0.117,0.097 -0.231,0.199 -0.341,0.304c-0.283,0.268 -0.545,0.565 -0.75,0.899c-0.15,0.245 -0.27,0.513 -0.324,0.797c-0.021,0.11 -0.03,0.22 -0.032,0.332c-0.004,0.836 -0.006,1.672 -0.008,2.508c-0.004,3.105 0.003,6.209 0.007,9.313l0,0.375l9.312,0.351c0.031,-0.036 0.063,-0.071 0.094,-0.107c0.007,-0.007 0.005,-0.019 0.007,-0.028c0.008,-0.03 0.015,-0.059 0.023,-0.088c0.024,-0.087 0.024,-0.087 0.05,-0.174c0.089,-0.276 0.197,-0.545 0.331,-0.803c0.076,-0.146 0.158,-0.288 0.248,-0.426c0.645,-1.001 1.605,-1.757 2.632,-2.338c0.163,-0.092 0.328,-0.18 0.495,-0.265c0.212,-0.107 0.427,-0.208 0.644,-0.304c0.313,-0.139 0.63,-0.267 0.95,-0.386c0.382,-0.142 0.768,-0.272 1.157,-0.392c0.514,-0.157 1.032,-0.298 1.554,-0.424c1.623,-0.392 3.278,-0.652 4.938,-0.825c1.941,-0.202 3.894,-0.282 5.844,-0.259c1.911,0.022 3.822,0.144 5.717,0.391c1.551,0.202 3.095,0.485 4.604,0.897c0.454,0.123 0.905,0.259 1.35,0.41c0.331,0.112 0.659,0.232 0.984,0.362c0.268,0.107 0.534,0.222 0.797,0.344c0.213,0.1 0.425,0.205 0.632,0.316c0.618,0.33 1.21,0.714 1.738,1.174c0.517,0.452 0.972,0.979 1.309,1.579c0.14,0.25 0.256,0.511 0.353,0.78l0.012,0.035c0.19,0.138 0.381,0.276 0.57,0.415c0.077,0.058 0.155,0.117 0.231,0.176c0.082,0.064 0.162,0.128 0.242,0.193l0.062,0.052l8.425,-0.612c0,-4.096 0.09,-8.193 -0.001,-12.288c-0.003,-0.078 -0.01,-0.156 -0.023,-0.233c-0.079,-0.49 -0.35,-0.93 -0.664,-1.305c-0.058,-0.069 -0.117,-0.136 -0.179,-0.201c-0.077,-0.083 -0.157,-0.163 -0.239,-0.241c-0.111,-0.106 -0.225,-0.207 -0.342,-0.304c-0.144,-0.12 -0.292,-0.235 -0.443,-0.346c-0.207,-0.151 -0.42,-0.295 -0.637,-0.431c-0.271,-0.171 -0.549,-0.332 -0.831,-0.484c-0.345,-0.186 -0.697,-0.36 -1.053,-0.525c-1,-0.461 -2.034,-0.847 -3.081,-1.186c-1.234,-0.4 -2.488,-0.734 -3.752,-1.021c-1.365,-0.31 -2.743,-0.565 -4.127,-0.778c-1.924,-0.296 -3.861,-0.509 -5.803,-0.654c-1.363,-0.102 -2.729,-0.169 -4.096,-0.206c-0.641,-0.018 -1.282,-0.026 -1.923,-0.031c-0.214,0 -0.429,-0.001 -0.643,-0.001Z" style="fill:#0079e8;fill-rule:nonzero;"/><path d="M31.566,49.981c0.76,0.003 1.52,0.013 2.279,0.035c2.007,0.056 4.013,0.181 6.012,0.384c1.961,0.198 3.916,0.47 5.857,0.834c1.412,0.265 2.816,0.578 4.207,0.954c1.208,0.327 2.407,0.702 3.586,1.142c0.748,0.28 1.488,0.587 2.215,0.93c0.527,0.249 1.048,0.517 1.557,0.81c0.349,0.2 0.693,0.413 1.029,0.639c0.261,0.176 0.517,0.361 0.768,0.555c0.189,0.146 0.373,0.298 0.553,0.456c0.126,0.11 0.249,0.223 0.369,0.339c0.732,0.706 1.38,1.544 1.785,2.528c0.063,0.151 0.119,0.305 0.169,0.462c0.065,0.205 0.119,0.414 0.16,0.627c0.059,0.296 0.093,0.599 0.101,0.902c0.012,0.422 -0.026,0.845 -0.11,1.257c-0.117,0.568 -0.322,1.111 -0.591,1.612c-0.389,0.728 -0.906,1.364 -1.478,1.921c-0.405,0.395 -0.84,0.752 -1.29,1.08c-0.504,0.366 -1.028,0.696 -1.564,1c-0.656,0.372 -1.331,0.705 -2.015,1.008c-0.751,0.333 -1.514,0.631 -2.285,0.903c-0.883,0.311 -1.777,0.588 -2.677,0.837c-0.921,0.255 -1.849,0.482 -2.781,0.686c-1.21,0.263 -2.426,0.487 -3.647,0.678c-1.302,0.204 -2.609,0.369 -3.918,0.502c-2.82,0.285 -5.652,0.418 -8.483,0.418c-2.832,0 -5.664,-0.133 -8.484,-0.418c-1.309,-0.133 -2.615,-0.298 -3.917,-0.502c-1.221,-0.191 -2.438,-0.415 -3.648,-0.678c-0.932,-0.204 -1.859,-0.431 -2.781,-0.686c-0.899,-0.249 -1.793,-0.526 -2.677,-0.837c-0.77,-0.272 -1.534,-0.57 -2.284,-0.903c-0.685,-0.303 -1.359,-0.636 -2.016,-1.008c-0.536,-0.304 -1.06,-0.634 -1.563,-1c-0.451,-0.328 -0.885,-0.685 -1.29,-1.08c-0.572,-0.557 -1.089,-1.193 -1.479,-1.921c-0.268,-0.501 -0.473,-1.044 -0.59,-1.612c-0.085,-0.412 -0.122,-0.835 -0.111,-1.257c0.009,-0.303 0.043,-0.606 0.101,-0.902c0.042,-0.213 0.096,-0.422 0.161,-0.627c0.05,-0.157 0.106,-0.311 0.168,-0.462c0.406,-0.984 1.053,-1.822 1.785,-2.528c0.121,-0.116 0.244,-0.229 0.369,-0.339c0.18,-0.158 0.365,-0.31 0.553,-0.456c0.251,-0.194 0.507,-0.379 0.768,-0.555c0.337,-0.226 0.681,-0.439 1.03,-0.639c0.509,-0.293 1.029,-0.561 1.557,-0.81c0.726,-0.343 1.467,-0.65 2.215,-0.93c1.178,-0.44 2.377,-0.815 3.585,-1.142c1.391,-0.376 2.796,-0.689 4.208,-0.954c1.883,-0.353 3.779,-0.619 5.681,-0.816c2.057,-0.213 4.122,-0.344 6.187,-0.402c0.76,-0.022 1.52,-0.032 2.28,-0.035c0.128,0 0.256,0 0.384,0Zm-0.192,6.783c8.454,0 15.318,2.226 15.318,4.967c0,2.741 -6.864,4.967 -15.318,4.967c-8.455,0 -15.319,-2.226 -15.319,-4.967c0,-2.741 6.864,-4.967 15.319,-4.967Z" style="fill:#0079e8;"/></g></g><defs><linearGradient id="_Linear1" x1="0" y1="0" x2="1" y2="0" gradientUnits="userSpaceOnUse" gradientTransform="matrix(216.54,0,0,216.542,10.7408,20.6411)"><stop offset="0" style="stop-color:#0079e8;stop-opacity:1"/><stop offset="1" style="stop-color:#0079e8;stop-opacity:0"/></linearGradient></defs></svg>
